<?xml version="1.0" encoding="UTF-8"?>
<svg xmlns="http://www.w3.org/2000/svg" xmlns:xlink="http://www.w3.org/1999/xlink" width="1080" height="1080" viewBox="0 0 1080 1080" version="1.1">
<g id="surface1">
<path style=" stroke:none;fill-rule:nonzero;fill:#F9E130;fill-opacity:1;" d="M 877.5 292.5 C 877.5 217.933594 817.066406 157.5 742.5 157.5 C 742.5 120.21875 712.28125 90 675 90 C 650.878906 90 629.863281 102.757813 617.941406 121.769531 C 600.953125 89.640625 567.609375 67.5 528.75 67.5 C 480.195313 67.5 439.71875 101.699219 429.886719 147.308594 C 411.90625 139.433594 392.109375 135 371.25 135 C 290.476563 135 225 200.476563 225 281.25 C 225 333 251.953125 378.382813 292.523438 404.371094 C 292.523438 404.59375 292.5 404.796875 292.5 405 C 292.5 541.6875 403.3125 652.5 540 652.5 C 671.648438 652.5 778.996094 549.628906 786.734375 419.941406 C 839.542969 401.601563 877.5 351.539063 877.5 292.5 Z "/>
<path style=" stroke:none;fill-rule:nonzero;fill:#F44336;fill-opacity:1;" d="M 803.25 967.5 L 877.5 411.976563 L 877.476563 411.976563 C 878.355469 376.988281 852.367188 348.050781 819.71875 348.007813 C 787.027344 347.960938 759.78125 376.3125 758.835938 411.34375 C 758.835938 411.570313 758.878906 411.773438 758.878906 411.976563 L 612.945313 411.976563 C 612 376.46875 579.78125 347.894531 540 347.894531 C 500.21875 347.894531 468 376.46875 467.054688 411.976563 L 321.03125 411.976563 C 321.03125 411.75 321.074219 411.570313 321.074219 411.34375 C 320.128906 376.3125 292.90625 347.941406 260.257813 348.007813 C 227.632813 348.050781 201.667969 376.988281 202.546875 411.976563 L 202.5 411.976563 L 276.75 967.5 Z "/>
<path style=" stroke:none;fill-rule:nonzero;fill:#E1F5FE;fill-opacity:1;" d="M 764.550781 412.175781 L 718.46875 920.789063 L 595.933594 920.789063 L 611.347656 409.636719 C 611.347656 409.273438 611.210938 408.960938 611.210938 408.601563 C 611.210938 375.074219 645.636719 347.894531 688.117188 347.894531 C 729.945313 347.894531 763.828125 374.308594 764.84375 407.136719 L 765 407.136719 L 764.933594 407.992188 C 764.933594 408.195313 765 408.398438 765 408.601563 C 765 409.835938 764.640625 410.984375 764.550781 412.175781 Z M 315.449219 412.175781 L 361.53125 920.789063 L 484.066406 920.789063 L 468.675781 409.65625 C 468.675781 409.296875 468.808594 408.984375 468.808594 408.621094 C 468.808594 375.097656 434.386719 347.917969 391.90625 347.917969 C 350.078125 347.917969 316.191406 374.332031 315.179688 407.160156 L 315 407.160156 L 315.066406 408.015625 C 315.066406 408.21875 315 408.421875 315 408.621094 C 315 409.835938 315.359375 410.984375 315.449219 412.175781 Z "/>
<path style="fill:none;stroke-width:2;stroke-linecap:butt;stroke-linejoin:miter;stroke:#F44336;stroke-opacity:1;stroke-miterlimit:4;" d="M 14.307986 41.961979 L 32.614931 41.961979 " transform="matrix(22.5,0,0,22.5,0,0)"/>
<path style="fill:none;stroke-width:2;stroke-linecap:round;stroke-linejoin:round;stroke:#FFB829;stroke-opacity:1;stroke-miterlimit:4;" d="M 32.732986 12.639063 C 32.197049 11.332986 30.913021 10.413021 29.414063 10.413021 C 28.905035 10.413021 28.422917 10.522049 27.985069 10.713021 C 27.446007 9.151042 25.978993 8.022049 24.234028 8.022049 C 22.032986 8.022049 20.248958 9.806076 20.248958 12.006944 C 20.248958 12.023958 20.253993 12.039931 20.253993 12.056944 C 19.747049 11.535938 19.040972 11.210069 18.256076 11.210069 C 17.218056 11.210069 16.313021 11.777083 15.831944 12.618056 " transform="matrix(22.5,0,0,22.5,0,0)"/>
</g>
</svg>
