<?xml version="1.0" encoding="UTF-8"?>
<svg xmlns="http://www.w3.org/2000/svg" xmlns:xlink="http://www.w3.org/1999/xlink" width="1080pt" height="1080pt" viewBox="0 0 1080 1080" version="1.1">
<g id="surface1">
<path style=" stroke:none;fill-rule:nonzero;fill:#FFCA28;fill-opacity:1;" d="M 990 540 C 990 787.5 787.5 990 540 990 C 292.5 990 90 787.5 90 540 C 90 292.5 292.5 90 540 90 C 787.5 90 990 292.5 990 540 Z "/>
<path style=" stroke:none;fill-rule:nonzero;fill:#FFFFFF;fill-opacity:1;" d="M 202.5 652.5 C 202.5 607.5 270 562.5 270 562.5 C 270 607.5 292.5 630 292.5 652.5 C 292.5 677.25 272.25 697.5 247.5 697.5 C 222.75 697.5 202.5 677.25 202.5 652.5 Z M 900 697.5 C 900 652.5 832.5 607.5 832.5 607.5 C 832.5 652.5 810 675 810 697.5 C 810 722.25 830.25 742.5 855 742.5 C 879.75 742.5 900 722.25 900 697.5 Z "/>
<path style=" stroke:none;fill-rule:nonzero;fill:#C62828;fill-opacity:1;" d="M 652.5 810 C 652.5 747 603 697.5 540 697.5 C 477 697.5 427.5 747 427.5 810 Z "/>
<path style=" stroke:none;fill-rule:nonzero;fill:#B76C09;fill-opacity:1;" d="M 310.5 553.5 L 274.5 526.5 C 276.75 524.25 315 472.5 382.5 472.5 C 450 472.5 488.25 524.25 490.5 526.5 L 454.5 553.5 C 454.5 553.5 425.25 517.5 382.5 517.5 C 339.75 517.5 310.5 553.5 310.5 553.5 Z M 625.5 553.5 L 589.5 526.5 C 591.75 524.25 630 472.5 697.5 472.5 C 765 472.5 803.25 524.25 805.5 526.5 L 769.5 553.5 C 769.5 553.5 740.25 517.5 697.5 517.5 C 654.75 517.5 625.5 553.5 625.5 553.5 Z "/>
</g>
</svg>
