<?xml version="1.0" encoding="UTF-8" standalone="no"?>
<svg
   width="1080pt"
   height="1080pt"
   viewBox="0 0 1080 1080"
   version="1.1"
   id="svg13"
   sodipodi:docname="icons8_search.svg"
   inkscape:version="1.1.1 (3bf5ae0d25, 2021-09-20)"
   inkscape:export-filename="C:\Users\Lenovo\Downloads\Android Dev\sublime\lib\assets\images\others\icons8_search.png"
   inkscape:export-xdpi="72"
   inkscape:export-ydpi="72"
   xmlns:inkscape="http://www.inkscape.org/namespaces/inkscape"
   xmlns:sodipodi="http://sodipodi.sourceforge.net/DTD/sodipodi-0.dtd"
   xmlns="http://www.w3.org/2000/svg"
   xmlns:svg="http://www.w3.org/2000/svg">
  <defs
     id="defs17" />
  <sodipodi:namedview
     id="namedview15"
     pagecolor="#ffffff"
     bordercolor="#666666"
     borderopacity="1.0"
     inkscape:pageshadow="2"
     inkscape:pageopacity="0.0"
     inkscape:pagecheckerboard="0"
     inkscape:document-units="pt"
     showgrid="false"
     inkscape:zoom="0.50383782"
     inkscape:cx="705.5842"
     inkscape:cy="759.17287"
     inkscape:window-width="1920"
     inkscape:window-height="991"
     inkscape:window-x="-9"
     inkscape:window-y="-9"
     inkscape:window-maximized="1"
     inkscape:current-layer="surface1"
     showguides="true">
    <inkscape:grid
       type="xygrid"
       id="grid826" />
  </sodipodi:namedview>
  <g
     id="surface1">
    <path
       style="fill:#616161;fill-opacity:1;fill-rule:nonzero;stroke:none;stroke-width:0.686575"
       d="m 710.74093,747.293 43.83638,-43.55231 186.30461,185.08925 -43.83637,43.55231 z"
       id="path2" />
    <path
       style="fill:#616161;fill-opacity:1;fill-rule:nonzero;stroke:none;stroke-width:0.955458"
       d="m 497.73721,144.28539 c -189.96804,0 -343.96461,153.99657 -343.96461,343.96461 0,189.96804 153.99657,343.96461 343.96461,343.96461 189.96804,0 343.96461,-153.99657 343.96461,-343.96461 0,-189.96804 -153.99657,-343.96461 -343.96461,-343.96461 z"
       id="path4" />
    <path
       style="fill:#37474f;fill-opacity:1;fill-rule:nonzero;stroke:none;stroke-width:0.690034"
       d="M 761.18384,798.38692 805.098,754.47275 940.13433,889.5037 896.22017,933.41787 Z"
       id="path6" />
    <path
       style="fill:#d3ecff;fill-opacity:1;fill-rule:nonzero;stroke:none;opacity:1"
       d="m 497.73721,195.75 c -161.54297,0 -292.5,130.95703 -292.5,292.5 0,161.54297 130.95703,292.5 292.5,292.5 161.54297,0 292.5,-130.95703 292.5,-292.5 0,-161.54297 -130.95703,-292.5 -292.5,-292.5 z"
       id="path8" />
    <path
       style="fill:#ffffff;fill-opacity:1;fill-rule:nonzero;stroke:none"
       d="m 652.98721,357.75 c -38.25,-45 -94.5,-72 -155.25,-72 -60.75,0 -117,27 -155.25,72 -9,9 -6.75,24.75 2.25,31.5 9,9 24.75,6.75 31.5,-2.25 31.5,-36 74.25,-56.25 121.5,-56.25 47.25,0 90,20.25 121.5,56.25 4.5,4.5 11.25,9 18,9 4.5,0 11.25,-2.25 13.5,-4.5 9,-9 9,-24.75 2.25,-33.75 z"
       id="path10" />
  </g>
</svg>
